<?xml version="1.0" standalone="no"?>
<!DOCTYPE svg PUBLIC "-//W3C//DTD SVG 20010904//EN"
 "http://www.w3.org/TR/2001/REC-SVG-20010904/DTD/svg10.dtd">
<svg version="1.0" xmlns="http://www.w3.org/2000/svg"
 width="700.000000pt" height="700.000000pt" viewBox="0 0 700.000000 700.000000"
 preserveAspectRatio="xMidYMid meet">
<metadata>
Created by potrace 1.14, written by Peter Selinger 2001-2017
</metadata>
<g transform="translate(0.000000,700.000000) scale(0.100000,-0.100000)"
fill="#000000" stroke="none">
<path d="M3920 5809 c-300 -132 -608 -267 -685 -300 -77 -34 -159 -70 -182
-80 -93 -41 -136 -60 -353 -154 -124 -54 -228 -101 -232 -104 -6 -5 14 -56 76
-196 87 -194 138 -316 135 -318 -9 -6 -132 -62 -138 -63 -3 0 -28 -11 -56 -23
-27 -12 -63 -28 -80 -36 -16 -7 -57 -25 -90 -40 -33 -15 -77 -34 -97 -42 -21
-8 -38 -18 -38 -22 0 -4 -6 -8 -14 -8 -7 0 -166 -66 -352 -147 -413 -180 -404
-176 -404 -186 0 -4 47 -114 104 -244 73 -165 100 -238 92 -244 -6 -5 -85 -40
-176 -80 -91 -39 -187 -81 -215 -93 -27 -13 -53 -22 -57 -21 -16 4 -6 -23 98
-260 58 -134 108 -249 111 -255 3 -7 0 -13 -7 -13 -6 0 -35 -11 -63 -24 -29
-12 -113 -49 -187 -81 -74 -32 -136 -59 -138 -60 -6 -5 208 -480 215 -478 4 1
90 38 190 82 100 44 186 82 193 83 9 3 33 -46 122 -252 6 -14 12 -27 13 -30 1
-3 14 -32 29 -65 15 -33 35 -78 43 -100 9 -22 19 -43 23 -48 7 -8 40 4 148 54
35 16 66 29 68 29 3 0 33 13 67 29 147 68 209 91 205 74 -1 -5 6 -26 16 -48
10 -22 33 -78 53 -125 19 -47 38 -89 42 -95 4 -5 25 -52 47 -104 21 -51 44
-95 49 -97 9 -4 134 50 745 318 63 27 129 56 145 63 17 7 61 27 98 44 38 17
70 31 72 31 3 0 34 13 69 30 85 38 137 60 145 60 4 0 56 -113 117 -250 123
-282 104 -263 207 -216 122 55 156 70 227 101 61 26 418 182 610 267 25 11 61
26 80 35 19 8 53 23 75 33 22 10 146 64 275 120 129 56 264 116 300 132 36 17
85 38 110 48 25 10 75 32 112 49 37 16 83 37 104 46 21 9 34 20 31 27 -11 28
-420 963 -422 966 -2 2 -647 -278 -790 -343 -16 -8 -156 -69 -310 -136 -154
-66 -308 -134 -343 -150 -76 -35 -89 -36 -98 -6 -6 20 -126 296 -180 415 -13
28 -26 52 -28 52 -2 0 -78 -32 -167 -71 -279 -122 -342 -149 -349 -149 -4 0
-25 42 -48 93 -69 153 -192 438 -192 443 0 3 17 12 38 20 20 9 51 22 67 29 17
8 113 51 215 95 102 45 188 84 191 88 4 4 -3 30 -16 57 -33 71 -176 396 -185
421 -7 17 -4 24 18 34 15 7 243 107 507 222 264 116 504 221 532 234 29 13
121 53 205 90 181 78 242 105 247 110 2 2 -1 14 -7 27 -6 12 -59 132 -117 267
-59 135 -147 335 -195 445 -48 110 -90 208 -93 218 -4 9 -12 17 -19 16 -7 0
-258 -108 -558 -240z"/>
</g>
</svg>
